# xmcd
#
# Track frame offsets: 
#        187
#        23330
#        40985
#        59095
#        75690
#        89965
#        104950
#        121125
#        139727
#        156320
#
# Disc length: 2127 seconds
#
# Revision: 2
# Processed by: cddbd v1.5.2PL0 Copyright (c) Steve Scherf et al.
# Submitted via: ExactAudioCopyFreeDBPlugin 1.0
#
DISCID=8d084d0a
DTITLE=Johnny Bristol - Hang On in There Baby
DYEAR=1974
DGENRE=Soul
TTITLE0=Woman, Woman
TTITLE1=Hang On in There Baby
TTITLE2=Reachin' Out for Your Love
TTITLE3=You and I
TTITLE4=Take Care of You for Me
TTITLE5=I Got Cha Number
TTITLE6=It Don't Hurt No More
TTITLE7=Memories Don't Leave Like People Do
TTITLE8=Love Me for a Reason
TTITLE9=Woman, Woman (Reprise)
EXTD=\n\n\n YEAR: 1970 ID3G: 42
EXTT0=
EXTT1=
EXTT2=
EXTT3=
EXTT4=
EXTT5=
EXTT6=
EXTT7=
EXTT8=
EXTT9=
PLAYORDER=
